<?xml version="1.0" encoding="utf-8"?>
<!-- Generator: Adobe Illustrator 25.4.1, SVG Export Plug-In . SVG Version: 6.00 Build 0)  -->
<svg version="1.1" id="Layer_1" xmlns="http://www.w3.org/2000/svg" xmlns:xlink="http://www.w3.org/1999/xlink" x="0px" y="0px"
	 viewBox="0 0 792 164.79" style="enable-background:new 0 0 792 164.79;" xml:space="preserve">
<style type="text/css">
	.st0{fill:#322422;}
</style>
<g>
	<g>
		<g>
			<path class="st0" d="M395.43,91.49c-0.21-0.18-0.46-0.47-0.61-0.87c-0.65-1.89-3.21-19.11-4.68-33.36
				c-1.55-14.98-1.14-27.56,1.14-35.43c0.31-1.07,0.76-2.19,1.28-3.27c-0.01,0.01-0.01,0.02-0.02,0.04
				c-2.14,4.67-2.98,13.71-2.25,24.19c0.24,3.44,1.39,12.05,2.3,18.37c2.1,14.62,2.36,14.88,3.22,15.72l0,0
				c0.56,0.55,1.33,0.87,2.12,0.87c2.48,0,3.21-2.19,4.41-5.83c4.31-13.06,8.87-41.81,7.25-50.32c-0.82-4.34-1.66-6.55-4.74-8.95
				c-0.53-0.41-1.64-1.22-2.87-1.67c2.54,0.61,5.02,2.89,6.7,6.25c1.57,3.13,1.6,3.19,1.56,10.78c-0.08,14.77-4.5,36.82-10.28,51.3
				c-0.78,1.95-3.26,8.34-3.39,10.52C396.45,90.24,395.9,91.01,395.43,91.49z"/>
		</g>
		<g>
			<g>
				<path class="st0" d="M649.04,161.79c-1.51,0-3.08-0.43-4.82-1.3c-0.93-0.47-1.69-1.17-2.79-3.32c-1.73-3.41-1.65-4.08-0.38-6.73
					c0.85-1.77,2.24-2.92,3.54-2.92c0.56,0,1.06,0.22,1.51,0.68c0.51,0.51,0.73,1.13,0.56,1.64c-0.12,0.39-0.44,0.63-0.96,0.73
					c-0.78,0.14-2.6,0.47-3.19,2.36c-0.61,1.92,0.68,3.22,1.53,4.07c1.29,1.29,2.64,1.92,4.13,1.92c2.45,0,4.41-1.76,6.16-3.66
					c2.53-2.74,3.39-4.52,4.42-9.11c2.14-9.52,0-18.9-7.14-31.38l-4.05-7.08c-0.54-0.95-1.54-1.51-2.6-1.51
					c-0.23,0-0.45,0.03-0.68,0.08c-1.29,0.3-2.23,1.41-2.31,2.73l-0.4,6.32c-0.41,6.53-1.6,9.75-4.7,12.77
					c-2.67,2.6-5.7,4.09-8.31,4.09c-2.16,0-3.86-0.97-5.07-2.89c-1.08-1.72-0.71-4.92,0.36-6.05c0.42-0.45,1.16-0.72,1.98-0.72
					c0.89,0,1.72,0.3,2.29,0.82c0.42,0.39,0.73,0.76,0.88,0.98c0.34,1.39,1.58,2.42,3.07,2.42c1.23,0,2.38-0.67,3.64-2.12
					c3.7-4.21,4.41-12.47,1.85-21.54c-3.18-11.28-15.32-23.48-35.11-35.28l-2.54-1.52c-0.48-0.29-1.01-0.43-1.54-0.43
					c-0.83,0-1.65,0.35-2.24,1c-0.96,1.08-1.02,2.68-0.14,3.82l1.48,1.92c7.08,9.16,10.26,17.77,10.32,27.93
					c0.07,11.04-6.54,22.88-14.43,25.86c-2.71,1.02-6.61,1.63-10.42,1.63c-2.84,0-5.34-0.33-7.05-0.94
					c-5.99-2.13-9.41-5.77-11.42-12.15c-3.14-9.96-0.52-17.96,7-21.38c1.25-0.57,2.61-0.86,4.05-0.86c4.63,0,8.69,3.06,8.69,6.55
					c0,1.55-1.02,2.82-2.47,3.1c-0.22,0.04-0.36,0.06-0.44,0.07c-0.13-0.09-0.41-0.32-0.98-0.87c-0.5-0.49-0.69-0.74-0.76-0.85
					c0.02-0.21,0.14-0.71,0.63-1.95c0.46-1.2,0.33-2.44-0.34-3.43c-0.44-0.64-1.5-1.71-3.7-1.71c-1.74,0-3.83,0.64-5.61,1.71
					c-3.99,2.42-6.1,6.33-6.1,11.32c0,7.79,3.73,14.71,9.5,17.62c2.19,1.11,3.81,1.47,6.65,1.47c0.83,0,1.84-0.03,3.26-0.09
					c10.17-0.46,14.01-3.22,18.65-13.42c1.68-3.68,2.01-5.51,1.98-10.83c-0.07-13.54-4.94-23.66-15.78-32.82
					c-12.01-10.16-23.68-14.19-44.58-15.41l-6.64-0.39c-0.06,0-0.12-0.01-0.18-0.01c-1.16,0-2.21,0.67-2.71,1.72
					c-0.52,1.11-0.32,2.42,0.51,3.32l3.49,3.77c3.32,3.59,7.25,10.55,9.12,16.2c0.69,2.08,1.02,4.83,1.03,8.64
					c0.03,6.98-1.39,11.48-5.44,17.21c-5.59,7.94-11.11,11.71-19.69,13.45c-1.64,0.33-3.34,0.5-5.03,0.5
					c-6.59,0-13.17-2.57-18.06-7.05c-5.12-4.7-8.43-12.49-7.69-18.12c1.53-11.56,11.26-18.47,19.79-18.47
					c3.76,0,7.27,1.3,10.15,3.76c2.77,2.38,4.48,5.74,4.68,9.23c0.18,3.18-0.88,6.19-3,8.48c-1.98,2.15-4.73,3.38-7.55,3.38
					c-3.11,0-5.69-1.49-6.89-3.98c-0.85-1.76-0.85-1.76-0.44-3.12c0.34-1.12,1.03-1.9,1.7-1.9c0.15,0,0.31,0.04,0.47,0.12
					c0.01,0.21,0.02,0.52,0.02,0.98c0,2.33,0,5.53,4.3,6.04c0.22,0.03,0.43,0.04,0.65,0.04c1.72,0,3.61-0.79,5.31-2.22
					c2.42-2.04,3.08-3.56,3.08-7.05c0-6.53-5.16-11.27-12.27-11.27c-5.31,0-10.37,2.62-13.56,7.02c-4.29,5.93-4.78,12.04-1.49,18.67
					c3.75,7.54,11.35,12.04,20.33,12.04c2.69,0,5.42-0.42,8.12-1.23c4.63-1.41,6.06-2.31,10.17-6.45
					c10.78-10.82,11.97-22.89,3.62-36.9c-4.88-8.21-13.93-14.15-23.63-15.52c-1.61-0.23-3.39-0.34-5.3-0.34
					c-9.19,0-20.54,2.64-28.92,6.73c-12.04,5.87-24.68,18.16-35.58,34.6c-2.14,3.23-3.11,3.39-3.28,3.39
					c-0.13,0-0.31-0.05-0.51-0.13c-0.25-0.14-0.8-0.73-0.97-1.11c-0.14-0.34-0.18-0.46-0.18-0.5c0.13-0.83,2.93-4.78,5.63-8.6
					c8.48-11.97,19.58-22.94,28.96-28.62c5.56-3.36,20.94-9.05,29.4-10.88c7.16-1.55,13.43-2.24,20.34-2.24
					c7.37,0,15.82,0.75,28.26,2.5c15.03,2.12,23.69,2.87,33.09,2.87c1.94,0,3.96-0.03,6.16-0.1c12.88-0.36,17.16-1.2,24.12-4.75
					c8.48-4.32,12.53-9.03,14.95-17.38c1.47-5.08,1.12-9.49-1.11-13.87c-1.64-3.22-6.08-7.57-9.5-9.31
					c-3.32-1.68-7.77-2.61-12.53-2.61c-4.56,0-8.99,0.86-12.46,2.42c-7.67,3.45-12.38,10.37-12,17.63c0.31,5.91,4.04,10.61,10,12.58
					c1.66,0.55,4.19,0.63,5.56,0.63c5.56,0,6.61-1.08,7.11-1.6c1-1.01,1.7-2.89-0.75-6.04c-1.14-1.46-0.99-3.81,0.34-5.24
					c0.92-0.99,1.22-1.12,2.52-1.12c0.41,0,0.9,0.02,1.5,0.07c2.68,0.23,3.63,3.08,3.63,5.46c0,3.19-0.57,4.56-2.89,6.99
					c-2.92,3.05-5.81,4.14-11.05,4.19l-0.79,0c-3.21,0-4.2-0.21-7.06-1.53c-7.2-3.32-11.14-10.8-9.38-17.79
					c2.55-10.15,9.79-16.2,21.53-17.97c0.23-0.03,1.02-0.09,2.54-0.09c1.16,0,2.44,0.03,3.61,0.1c8.3,0.45,15.48,3.96,19.72,9.61
					c3.62,4.84,4.82,10.9,3.37,17.09c-1.79,7.66-5.52,13.32-11.4,17.33c-6.95,4.73-13.43,6.92-23.91,8.08l-4.02,0.44
					c-1.31,0.14-2.37,1.12-2.62,2.42c-0.25,1.29,0.37,2.59,1.53,3.21l5.62,3c3.04,1.62,9.18,5.36,13.67,8.32
					c21.15,13.92,34.37,20.02,50.52,23.28c6.29,1.28,9.68,1.56,19.09,1.58l0.76,0c12.76,0,16.12-0.88,23.98-6.24
					c6.91-4.71,10.91-10.3,12.99-18.1c1.42-5.32,1.28-9.42-0.48-14.14c-3.09-8.28-9.31-12.65-17.99-12.65l-0.34,0
					c-4.06,0.05-7.46,0.33-7.94,3.31c-0.1,0.63-0.21,2.75,2.57,3.78c0.27,0.18,0.95,0.72,1.62,1.44c0.81,0.86,1.14,2.04,0.91,3.23
					c-0.25,1.3-1.09,2.38-2.3,2.96c-1.03,0.49-2.25,0.75-3.52,0.75c-2.9,0-5.8-1.29-7.56-3.38c-1.86-2.21-2.41-4.47-1.63-6.73
					c1.34-3.89,6.35-7.19,13.08-8.6c1.95-0.41,3.72-0.61,5.42-0.61c3.22,0,6.27,0.74,9.58,2.34c5.93,2.86,9.12,6.57,11.39,13.25
					c3.08,9.11-0.46,22.28-8.05,29.99c-7.2,7.3-15.26,11.15-25.36,12.11c-1.89,0.18-3.96,0.27-6.16,0.27
					c-10.46,0-23.07-2.07-32.12-5.28c-5.4-1.92-6.34-2.07-7.07-2.07c-1.42,0-2.62,0.89-3.01,2.21c-0.24,0.83-0.34,2.42,1.7,3.76
					c0.51,0.4,2.91,2.59,6.12,5.67c10.1,9.7,21.03,16.06,36.55,21.25c14.83,4.96,25.84,6.95,40.63,7.37
					c2.64,0.08,4.87,0.11,6.81,0.11c8.71,0,14.07-0.69,22.93-2.96c16.69-4.28,26.27-12.62,29.29-25.49
					c2.87-12.22-1.04-21.97-10.72-26.73c-2.89-1.43-6.65-2.22-10.56-2.22c-3.61,0-7.11,0.68-9.86,1.92
					c-6.74,3.04-10.23,8.14-9.58,13.98c0.35,3.08,1.68,4.65,3.97,4.65c1.17,0,2.24-0.51,3.43-1.12c1.44-0.74,2.13-0.84,2.57-0.84
					c0.62,0,1.37,0.22,2.43,0.72c1.71,0.81,2.67,2.04,2.7,3.45c0.03,1.71-1.31,3.48-3.5,4.62c-0.55,0.28-1.38,0.42-2.56,0.42
					c-0.43,0-0.9-0.02-1.4-0.05c-3.7-0.26-6.48-2.08-8.74-5.73c-1.22-1.97-1.55-2.85-1.72-6.38c-0.18-3.71-0.03-4.24,1.19-6.75
					c1.69-3.47,5.34-6.85,9.51-8.83c3.6-1.7,7.69-2.6,11.82-2.6c3.74,0,7.31,0.75,10.32,2.15c8.22,3.86,13.42,11.1,13.91,19.37
					c0.3,5.03-1.03,12.78-2.96,17.28c-2.54,5.92-8.45,12.02-15.41,15.92c-9.43,5.27-25.1,8.54-40.88,8.54
					c-6.25,0-12.25-0.5-17.83-1.47c-17.37-3.05-34.59-9.27-46.06-16.64c-4.04-2.6-4.97-2.6-5.59-2.6c-1.01,0-2.04,0.54-2.59,1.39
					c-0.57,0.87-0.65,1.97-0.22,2.94c4.38,10,5.59,15.36,5.16,22.93c-0.4,7.02-1.91,11.07-5.59,14.95
					C654.28,160.41,651.68,161.79,649.04,161.79z"/>
			</g>
			<g>
				<path class="st0" d="M406.77,140.6c-0.3,0-0.77-0.24-1.17-0.9c-1.1-3.53-1.36-33.82,0.34-44.19
					c3.49-21.17,9.68-35.04,20.08-44.96c4.3-4.11,7.71-6.53,10.75-7.62c1.27-0.46,2.2-0.67,2.92-0.67c0.59,0,1.1,0.14,1.77,0.49
					c4.69,2.43,7.09,10.42,5.57,18.6c-1.71,9.25-6.99,20.87-17.64,38.84c-9.53,16.1-14.38,24.9-18.53,33.62
					c-1.75,3.68-3.28,6.08-3.83,6.72C406.95,140.58,406.86,140.6,406.77,140.6L406.77,140.6z M439.59,43.32
					c-3.63,0-10.82,6.46-10.89,6.53c-11.67,10.66-19.41,30.65-21.23,54.85c-1.19,15.86-0.43,16.68,0.53,17.72
					c0.59,0.64,1.43,1.01,2.29,1.01c1.1,0,2.1-0.57,2.74-1.56c0.44-0.68,2.8-4.75,4.72-8.11c2.2-3.84,7.05-11.8,10.82-17.75
					c7.63-12.06,14.51-25.55,16.36-32.06c1.48-5.17,1.99-12.6-0.37-16.69c-0.59-1.03-2.2-3.46-4.27-3.86
					C440.08,43.34,439.84,43.32,439.59,43.32z"/>
			</g>
			<g>
				<path class="st0" d="M414.51,147.25c-0.39-0.06-0.83-0.31-1.02-0.52c0.66-2.52,5.84-12.91,9.96-19.09
					c6.37-9.54,12.48-15.27,19.25-18.02c1.52-0.62,4.37-1.05,6.93-1.05c1.73,0,2.84,0.19,3.31,0.37c1.71,0.65,4.6,3.39,5.9,6.1
					c1.65,3.41,1.65,9.59,0.01,13.22c-1.39,3.08-4.6,6.53-6.56,7.56c-0.49,0.25-1.67,0.52-3.21,0.52c0,0,0,0,0,0
					c-1.62,0-2.89-0.29-3.44-0.58c-1.19-0.62-2.75-2.83-3.22-5.34c-0.29-1.54,0.25-3.36,1.4-4.74c0.96-1.15,2.16-1.81,3.3-1.81
					c0.42,0.08,1.35,0.86,1.7,1.42c-0.25,0.45-0.84,1.06-1.17,1.19c-1.25,0.44-2.13,1.38-2.42,2.58c-0.27,1.14,0.07,2.34,0.9,3.21
					c0.6,0.64,1.44,1,2.36,1c0,0,0,0,0,0c0.59,0,2.17,0,4.78-3.02c3.17-3.67,4.24-8.7,2.78-13.12c-1.36-4.09-3.55-5.76-7.58-5.76
					c-9.29,0-21.16,11.36-30.22,28.94C416.49,143.69,415.08,146.27,414.51,147.25z"/>
			</g>
		</g>
		<g>
			<g>
				<path class="st0" d="M142.17,161.79c-2.65,0-5.24-1.39-7.94-4.24c-3.68-3.88-5.2-7.94-5.6-14.96
					c-0.42-7.57,0.78-12.93,5.17-22.94c0.41-0.93,0.32-2.09-0.23-2.94c-0.57-0.87-1.54-1.38-2.59-1.38c-0.62,0-1.55,0-5.59,2.6
					c-11.47,7.37-28.69,13.59-46.06,16.64c-5.58,0.98-11.58,1.47-17.83,1.47c-15.78,0-31.45-3.27-40.88-8.54
					c-6.97-3.9-12.88-10-15.41-15.92c-1.93-4.5-3.26-12.25-2.96-17.28c0.49-8.27,5.69-15.52,13.91-19.38
					c3.01-1.41,6.58-2.15,10.32-2.15c4.14,0,8.23,0.9,11.83,2.6c4.18,1.98,7.82,5.36,9.51,8.83c1.22,2.5,1.36,3.04,1.18,6.75
					c-0.17,3.53-0.5,4.41-1.72,6.38c-2.26,3.64-5.04,5.46-8.74,5.73c-0.5,0.04-0.97,0.05-1.4,0.05c-1.17,0-2.01-0.14-2.56-0.42
					c-2.19-1.14-3.53-2.91-3.5-4.61c0.03-1.41,0.98-2.64,2.7-3.45c1.05-0.5,1.8-0.72,2.43-0.72c0.44,0,1.14,0.1,2.57,0.84
					c1.19,0.61,2.26,1.12,3.43,1.12c2.28,0,3.62-1.56,3.96-4.65c0.66-5.84-2.83-10.94-9.57-13.98c-2.75-1.24-6.26-1.92-9.87-1.92
					c-3.92,0-7.67,0.79-10.57,2.22C6.5,82.3,2.6,92.04,5.46,104.26c3.03,12.88,12.61,21.21,29.29,25.49
					c8.86,2.27,14.22,2.96,22.93,2.96c1.95,0,4.18-0.04,6.82-0.11c14.78-0.41,25.79-2.41,40.63-7.37
					c15.53-5.19,26.46-11.55,36.55-21.25c3.2-3.08,5.61-5.27,6.12-5.67c2.04-1.33,1.95-2.93,1.71-3.76
					c-0.38-1.32-1.59-2.21-3.01-2.21c-0.73,0-1.67,0.15-7.07,2.07c-9.05,3.21-21.66,5.28-32.12,5.28c-2.2,0-4.27-0.09-6.16-0.27
					c-10.1-0.96-18.16-4.81-25.36-12.12c-7.59-7.71-11.13-20.88-8.05-29.99c2.26-6.67,5.45-10.39,11.39-13.25
					c3.32-1.59,6.36-2.34,9.58-2.34c1.69,0,3.46,0.2,5.41,0.61c6.73,1.42,11.74,4.71,13.08,8.6c0.78,2.26,0.23,4.52-1.63,6.73
					c-1.76,2.08-4.65,3.38-7.56,3.38c-1.27,0-2.49-0.26-3.52-0.75c-1.21-0.57-2.05-1.65-2.3-2.95c-0.23-1.19,0.1-2.37,0.9-3.22
					c0.68-0.73,1.36-1.28,1.63-1.45c2.78-1.05,2.67-3.15,2.57-3.78c-0.48-2.97-3.88-3.26-7.95-3.31l-0.34,0
					c-8.68,0-14.89,4.37-17.98,12.65c-1.76,4.73-1.9,8.83-0.48,14.14c2.07,7.8,6.08,13.38,12.99,18.1
					c7.86,5.37,11.22,6.24,23.98,6.24l0.76,0c9.42-0.02,12.81-0.3,19.1-1.58c16.15-3.27,29.37-9.36,50.52-23.28
					c4.52-2.98,10.65-6.71,13.68-8.33l5.61-3c1.16-0.62,1.78-1.92,1.53-3.21c-0.25-1.29-1.31-2.27-2.62-2.42l-4.02-0.44
					c-10.48-1.16-16.97-3.35-23.91-8.08c-5.88-4.01-9.61-9.68-11.4-17.33c-1.45-6.18-0.25-12.25,3.37-17.09
					c4.23-5.65,11.42-9.15,19.72-9.61c1.16-0.06,2.45-0.1,3.61-0.1c1.52,0,2.32,0.06,2.55,0.09c11.73,1.77,18.98,7.82,21.53,17.97
					c1.76,6.99-2.18,14.48-9.38,17.79c-2.86,1.32-3.85,1.53-7.06,1.53l-0.78,0c-5.25-0.05-8.14-1.15-11.05-4.19
					c-2.32-2.43-2.89-3.8-2.89-6.99c0-2.38,0.95-5.23,3.63-5.46c0.6-0.05,1.08-0.07,1.49-0.07c1.28,0,1.61,0.15,2.52,1.13
					c1.32,1.43,1.47,3.78,0.33,5.24c-2.45,3.13-1.76,5.02-0.75,6.05c0.5,0.51,1.56,1.59,7.1,1.59c1.36,0,3.9-0.08,5.56-0.63
					c5.96-1.96,9.69-6.67,10-12.58c0.38-7.26-4.33-14.17-12-17.62c-3.47-1.56-7.9-2.42-12.46-2.42c-4.76,0-9.21,0.93-12.53,2.61
					c-3.42,1.73-7.87,6.08-9.51,9.31c-2.22,4.38-2.58,8.79-1.1,13.87c2.42,8.36,6.47,13.07,14.94,17.38
					c6.96,3.54,11.25,4.38,24.13,4.75c2.2,0.06,4.22,0.1,6.16,0.1c9.4,0,18.05-0.75,33.09-2.87c12.44-1.75,20.89-2.5,28.25-2.5
					c6.91,0,13.18,0.69,20.35,2.24c8.46,1.83,23.84,7.52,29.4,10.88c9.38,5.68,20.48,16.64,28.96,28.62
					c2.7,3.81,5.49,7.76,5.62,8.68c0,0,0-0.01,0-0.01c-0.01,0-0.05,0.13-0.18,0.44c-0.16,0.37-0.7,0.96-0.98,1.1
					c-0.19,0.08-0.37,0.13-0.5,0.13c-0.17,0-1.14-0.16-3.28-3.39c-10.91-16.44-23.54-28.73-35.59-34.6
					c-8.38-4.09-19.73-6.73-28.92-6.73c-1.91,0-3.69,0.12-5.3,0.35c-9.69,1.37-18.75,7.32-23.63,15.52
					c-8.34,14.01-7.15,26.08,3.63,36.9c4.11,4.14,5.54,5.04,10.17,6.45c2.69,0.82,5.43,1.23,8.12,1.23c8.98,0,16.58-4.5,20.33-12.04
					c3.29-6.64,2.81-12.74-1.48-18.67c-3.19-4.4-8.26-7.02-13.56-7.02c-7.11,0-12.27,4.74-12.27,11.27c0,3.49,0.66,5.01,3.07,7.05
					c1.71,1.43,3.59,2.22,5.31,2.22c0.21,0,0.42-0.01,0.63-0.04c4.32-0.51,4.32-3.71,4.32-6.04c0-0.46,0.01-0.78,0.02-0.98
					c0.17-0.08,0.33-0.12,0.47-0.12c0.66,0,1.36,0.78,1.69,1.89c0.41,1.38,0.41,1.38-0.43,3.13c-1.21,2.5-3.78,3.99-6.89,3.99
					c-2.81,0-5.56-1.23-7.55-3.38c-2.12-2.29-3.18-5.3-2.99-8.48c0.2-3.48,1.91-6.84,4.69-9.22c2.87-2.46,6.38-3.76,10.15-3.76
					c8.53,0,18.27,6.91,19.79,18.47c0.74,5.63-2.56,13.42-7.69,18.12c-4.89,4.48-11.48,7.05-18.06,7.05c-1.7,0-3.39-0.17-5.03-0.5
					c-8.58-1.74-14.1-5.51-19.69-13.45c-4.04-5.73-5.47-10.24-5.44-17.21c0.02-3.8,0.34-6.55,1.04-8.65
					c1.88-5.65,5.8-12.62,9.12-16.2l3.49-3.76c0.83-0.9,1.04-2.21,0.51-3.32c-0.5-1.05-1.56-1.72-2.71-1.72
					c-0.06,0-0.12,0-0.18,0.01l-6.64,0.39c-20.9,1.22-32.57,5.25-44.59,15.41c-10.84,9.16-15.7,19.29-15.78,32.82
					c-0.03,5.33,0.31,7.15,1.99,10.83c4.64,10.2,8.48,12.96,18.66,13.42c1.42,0.07,2.43,0.09,3.26,0.09c2.88,0,4.43-0.34,6.66-1.48
					c5.77-2.91,9.49-9.83,9.49-17.62c0-4.99-2.11-8.9-6.1-11.32c-1.77-1.07-3.87-1.71-5.61-1.71c-2.2,0-3.27,1.07-3.7,1.71
					c-0.68,0.99-0.81,2.23-0.35,3.41c0.49,1.25,0.61,1.76,0.63,1.97c-0.07,0.11-0.26,0.35-0.76,0.85c-0.56,0.55-0.84,0.78-0.98,0.87
					c-0.08-0.01-0.22-0.03-0.43-0.07c-1.46-0.28-2.48-1.56-2.48-3.1c0-3.49,4.06-6.55,8.69-6.55c1.43,0,2.79,0.29,4.04,0.86
					c7.52,3.42,10.14,11.41,7,21.38c-2.01,6.38-5.42,10.01-11.42,12.15c-1.7,0.6-4.2,0.93-7.04,0.93c-3.82,0-7.71-0.61-10.42-1.63
					c-7.9-2.97-14.51-14.81-14.44-25.85c0.07-10.16,3.25-18.77,10.32-27.93l1.48-1.92c0.88-1.14,0.82-2.75-0.13-3.83
					c-0.59-0.66-1.41-1.01-2.24-1.01c-0.53,0-1.06,0.14-1.54,0.43l-2.55,1.53c-19.79,11.8-31.93,24-35.11,35.28
					c-2.56,9.07-1.85,17.33,1.86,21.55c1.27,1.46,2.4,2.11,3.64,2.11c1.48,0,2.72-1.01,3.06-2.41c0.15-0.21,0.45-0.59,0.88-0.99
					c0.57-0.53,1.41-0.83,2.29-0.83c0.82,0,1.56,0.27,1.98,0.71c1.07,1.13,1.44,4.34,0.36,6.06c-1.21,1.92-2.91,2.89-5.07,2.89
					c-2.61,0-5.64-1.49-8.31-4.09c-3.1-3.02-4.29-6.24-4.7-12.77l-0.4-6.32c-0.08-1.32-1.02-2.43-2.31-2.73
					c-0.23-0.05-0.46-0.08-0.68-0.08c-1.06,0-2.06,0.56-2.6,1.51l-4.06,7.08c-7.14,12.48-9.27,21.87-7.14,31.38
					c1.02,4.58,1.89,6.37,4.42,9.11c1.76,1.9,3.72,3.66,6.16,3.66c1.48,0,2.83-0.62,4.12-1.91c0.86-0.87,2.15-2.16,1.54-4.08
					c-0.6-1.9-2.42-2.22-3.19-2.36c-0.52-0.09-0.84-0.34-0.96-0.73c-0.16-0.51,0.05-1.12,0.57-1.64c0.46-0.45,0.95-0.68,1.51-0.68
					c1.3,0,2.69,1.15,3.55,2.92c1.27,2.64,1.35,3.32-0.38,6.73c-1.09,2.15-1.85,2.84-2.78,3.32
					C145.26,161.37,143.68,161.79,142.17,161.79z"/>
			</g>
			<g>
				<path class="st0" d="M384.44,140.6c-0.09,0-0.18-0.02-0.27-0.06c-0.55-0.65-2.08-3.05-3.82-6.72
					c-4.16-8.73-9.01-17.53-18.53-33.62c-10.65-17.98-15.92-29.6-17.64-38.84c-1.52-8.18,0.88-16.17,5.57-18.6
					c0.67-0.34,1.18-0.49,1.77-0.49c0.72,0,1.65,0.21,2.92,0.67c3.03,1.09,6.45,3.51,10.75,7.62c10.4,9.92,16.59,23.79,20.08,44.96
					c1.7,10.36,1.44,40.66,0.34,44.19C385.22,140.36,384.74,140.6,384.44,140.6L384.44,140.6z M351.62,43.32
					c-0.25,0-0.5,0.02-0.73,0.07c-2.04,0.4-3.65,2.83-4.24,3.86c-2.36,4.09-1.85,11.52-0.37,16.69c1.86,6.53,8.74,20.01,16.37,32.06
					c3.8,6.01,8.66,13.97,10.82,17.75c1.92,3.36,4.27,7.41,4.72,8.11c0.64,0.99,1.64,1.56,2.74,1.56c0.86,0,1.7-0.37,2.29-1.01
					c0.96-1.04,1.72-1.86,0.53-17.72c-1.82-24.2-9.56-44.19-21.23-54.85C362.44,49.78,355.26,43.32,351.62,43.32z"/>
			</g>
			<g>
				<path class="st0" d="M376.7,147.25c-0.57-0.97-1.95-3.51-3.73-6.95c-9.07-17.58-20.93-28.94-30.22-28.94
					c-4.03,0-6.23,1.67-7.58,5.75c-1.46,4.42-0.4,9.45,2.77,13.12c2.62,3.02,4.19,3.02,4.78,3.02c0.92,0,1.76-0.36,2.38-1.02
					c0.81-0.86,1.15-2.06,0.88-3.19c-0.29-1.19-1.16-2.13-2.41-2.58c-0.34-0.13-0.92-0.74-1.18-1.19c0.35-0.55,1.29-1.34,1.77-1.42
					c1.07,0,2.28,0.66,3.23,1.81c1.15,1.38,1.68,3.19,1.4,4.74c-0.46,2.51-2.02,4.72-3.21,5.34c-0.56,0.29-1.83,0.58-3.45,0.58
					c-1.54,0-2.73-0.26-3.23-0.52c-1.94-1.02-5.16-4.47-6.54-7.55c-1.65-3.64-1.64-9.82,0-13.23c1.31-2.71,4.19-5.45,5.9-6.1
					c0.47-0.18,1.59-0.37,3.31-0.37c2.57,0,5.42,0.43,6.93,1.05c6.78,2.76,12.89,8.49,19.25,18.03c4.12,6.18,9.31,16.57,9.96,19.09
					C377.53,146.94,377.09,147.19,376.7,147.25z"/>
			</g>
		</g>
	</g>
</g>
</svg>
